<?xml version="1.0" encoding="UTF-8" standalone="no"?>
<svg
   xmlns:dc="http://purl.org/dc/elements/1.1/"
   xmlns:cc="http://creativecommons.org/ns#"
   xmlns:rdf="http://www.w3.org/1999/02/22-rdf-syntax-ns#"
   xmlns:svg="http://www.w3.org/2000/svg"
   xmlns="http://www.w3.org/2000/svg"
   id="svg2"
   version="1.1"
   width="360.02539"
   height="209.61133"
   viewBox="0 0 360.02539 209.61133">
  <metadata
     id="metadata8">
    <rdf:RDF>
      <cc:Work
         rdf:about="">
        <dc:format>image/svg+xml</dc:format>
        <dc:type
           rdf:resource="http://purl.org/dc/dcmitype/StillImage" />
        <dc:title></dc:title>
      </cc:Work>
    </rdf:RDF>
  </metadata>
  <defs
     id="defs6" />
  <flowRoot
     transform="translate(-107.2795,-33.946275)"
     style="font-style:normal;font-weight:normal;font-size:40px;line-height:125%;font-family:sans-serif;letter-spacing:0px;word-spacing:0px;fill:#000000;fill-opacity:1;stroke:none;stroke-width:1px;stroke-linecap:butt;stroke-linejoin:miter;stroke-opacity:1"
     id="flowRoot4310"
     xml:space="preserve"><flowRegion
       id="flowRegion4312"><rect
         y="1039"
         x="-350"
         height="170"
         width="550"
         id="rect4314" /></flowRegion><flowPara
       id="flowPara4316" /></flowRoot>  <flowRoot
     transform="translate(-107.2795,-33.946275)"
     style="font-style:normal;font-weight:normal;font-size:40px;line-height:125%;font-family:sans-serif;letter-spacing:0px;word-spacing:0px;fill:#000000;fill-opacity:1;stroke:none;stroke-width:1px;stroke-linecap:butt;stroke-linejoin:miter;stroke-opacity:1"
     id="flowRoot4604"
     xml:space="preserve"><flowRegion
       id="flowRegion4606"><rect
         y="1299"
         x="720"
         height="210"
         width="580"
         id="rect4608" /></flowRegion><flowPara
       id="flowPara4610" /></flowRoot>  <path
     id="path4140-4-0-6-2-8-6"
     d="m 135.02539,0 0,185 35,0 0,-66.73437 65,0 0,-30.000005 -65,0 0,-53.265625 65,0 0,-35 -100,0 z M 90,0.03516 0,185.03515 l 37,0 L 90,75.035155 90,0.03516 Z m 5,0 0,184.99999 35,0 0,-184.99999 -35,0 z m 145,0 0,184.99999 120,0 0.0254,-61.76952 -35,0 c 0.063,4.10339 0.002,25.00013 -0.0254,26.76952 l -50,0 0,-119.99999 50,0 0.0254,23.230469 35,0 L 360,0.03516 l -120,0 z M 90,85.035155 59,150.03515 l 31,0 0,-64.999995 z m 210.02539,3.23047 0,29.999995 60,0 0,-29.999995 -60,0 z M 206.6543,190.17968 c -2.63184,0 -4.7561,0.86695 -6.37109,2.60157 -1.61499,1.72607 -2.42188,4.15185 -2.42188,7.27929 0,2.95655 0.80371,5.29102 2.41016,7 1.60644,1.70044 3.65722,2.55078 6.15234,2.55078 2.0166,0 3.677,-0.49707 4.98438,-1.48828 1.31591,-0.99975 2.25634,-2.52539 2.82031,-4.57617 l -3.67774,-1.16601 c -0.31616,1.37573 -0.83813,2.38452 -1.56445,3.02539 -0.72632,0.64087 -1.59326,0.96093 -2.60156,0.96093 -1.36719,0 -2.47754,-0.50341 -3.33203,-1.51171 -0.85449,-1.00831 -1.28321,-2.70069 -1.28321,-5.07618 0,-2.23877 0.43189,-3.85766 1.29493,-4.85742 0.87158,-0.99975 2.00366,-1.5 3.39648,-1.5 1.0083,0 1.86377,0.28175 2.56445,0.8457 0.70923,0.56397 1.17432,1.33252 1.39649,2.30664 l 3.75586,-0.89648 c -0.42725,-1.50391 -1.06739,-2.65771 -1.92188,-3.46094 -1.43554,-1.35864 -3.30298,-2.03711 -5.60156,-2.03711 z m 68.6875,0 c -1.79443,0 -3.29321,0.31177 -4.49805,0.93555 -1.58081,0.81177 -2.78125,1.97705 -3.60156,3.49805 -0.82031,1.52099 -1.23047,3.26001 -1.23047,5.21679 0,1.80298 0.3667,3.47364 1.10156,5.01172 0.73487,1.52954 1.83374,2.71021 3.29493,3.53907 1.46118,0.82031 3.17334,1.23046 5.13867,1.23046 1.54663,0 3.07226,-0.29199 4.57617,-0.87304 1.51245,-0.5896 2.66626,-1.26807 3.46094,-2.03711 l 0,-7.48633 -8.17774,0 0,3.16602 4.34571,0 0,2.38476 c -0.57251,0.44434 -1.26123,0.82446 -2.06446,1.14063 -0.79467,0.30761 -1.59008,0.46093 -2.38476,0.46093 -1.60645,0 -2.90528,-0.55517 -3.89649,-1.66601 -0.99121,-1.11939 -1.48633,-2.79321 -1.48633,-5.02344 0,-2.06787 0.48682,-3.62866 1.46094,-4.67969 0.98267,-1.05102 2.30323,-1.57617 3.96094,-1.57617 1.09375,0 2.00415,0.27026 2.73047,0.8086 0.73486,0.52978 1.23511,1.25488 1.5,2.17773 l 3.76758,-0.70508 c -0.37598,-1.72607 -1.22119,-3.07666 -2.53711,-4.05078 -1.30738,-0.98267 -3.12818,-1.47266 -5.46094,-1.47266 z m 39.01562,0 c -1.52954,0 -2.87817,0.24659 -4.04882,0.74219 -0.88013,0.36743 -1.69214,0.93286 -2.43555,1.69336 -0.73486,0.7605 -1.31689,1.61914 -1.74414,2.57617 -0.57251,1.29883 -0.85742,2.9043 -0.85742,4.81836 0,2.99072 0.82348,5.3418 2.47265,7.05078 1.64917,1.70044 3.87183,2.55078 6.66602,2.55078 2.76001,0 4.96411,-0.85546 6.61328,-2.56445 1.64917,-1.71753 2.47266,-4.0935 2.47266,-7.12695 0,-3.05908 -0.83179,-5.44654 -2.49805,-7.16406 -1.65771,-1.71753 -3.87207,-2.57618 -6.64063,-2.57618 z M 7.31836,190.5 0,209.28906 l 4.02344,0 1.55078,-4.26758 7.51172,0 1.64063,4.26758 4.12695,0 -7.52344,-18.78906 -4.01172,0 z m 13.625,0 0,18.78906 3.79297,0 0,-7.84375 0.76953,0 c 0.87158,0 1.50855,0.0735 1.91016,0.21875 0.40161,0.13672 0.78174,0.39673 1.14062,0.78125 0.35889,0.37598 1.02588,1.29468 2,2.75586 l 2.74219,4.08789 4.53711,0 -2.29492,-3.66406 c -0.90576,-1.46119 -1.62769,-2.47828 -2.16602,-3.05079 -0.52978,-0.5725 -1.20508,-1.09765 -2.02539,-1.57617 1.64917,-0.23925 2.8899,-0.81616 3.71875,-1.73047 0.82886,-0.92285 1.24219,-2.09008 1.24219,-3.5 0,-1.11084 -0.27344,-2.0979 -0.82031,-2.96093 -0.54688,-0.86304 -1.2771,-1.46167 -2.19141,-1.79493 -0.90576,-0.34179 -2.36304,-0.5117 -4.37109,-0.5117 l -7.98438,0 z m 18.9043,0 0,18.78906 3.52539,0 0,-14.79102 3.7168,14.79102 3.65234,0 3.73047,-14.79102 0,14.79102 3.52539,0 0,-18.78906 -5.69141,0 -3.37109,12.8164 -3.4082,-12.8164 -5.67969,0 z m 27.35352,0 -7.31836,18.78906 4.02343,0 1.55078,-4.26758 7.51172,0 1.64063,4.26758 4.12695,0 -7.52344,-18.78906 -4.01171,0 z m 10.31835,0 0,3.17773 5.57422,0 0,15.61133 3.79493,0 0,-15.61133 5.5625,0 0,-3.17773 -14.93165,0 z m 20.80079,0 -7.31836,18.78906 4.02539,0 1.55078,-4.26758 7.51172,0 1.64062,4.26758 4.12695,0 -7.52343,-18.78906 -4.01367,0 z m 19.94531,0 0,18.78906 3.79297,0 0,-7.98438 7.84375,0 0,-3.17773 -7.84375,0 0,-4.44921 9.08789,0 0,-3.17773 -12.88086,0 z m 15.90625,0 0,18.78906 3.79297,0 0,-18.78906 -3.79297,0 z m 7.43359,0 0,18.78906 3.52539,0 0,-12.25195 7.57422,12.25195 3.80664,0 0,-18.78906 -3.52344,0 0,12.54882 -7.6914,-12.54882 -3.69141,0 z m 24.33985,0 -7.31836,18.78906 4.02539,0 1.55078,-4.26758 7.50976,0 1.64063,4.26758 4.12695,0 -7.52344,-18.78906 -4.01171,0 z m 13.65039,0 0,18.78906 3.52539,0 0,-12.25195 7.57422,12.25195 3.80664,0 0,-18.78906 -3.52344,0 0,12.54882 -7.69141,-12.54882 -3.6914,0 z m 37.78711,0 0,18.78906 3.79296,0 0,-18.78906 -3.79296,0 z m 12.80273,0 -7.31836,18.78906 4.02539,0 1.55078,-4.26758 7.51172,0 1.64063,4.26758 4.12695,0 -7.52344,-18.78906 -4.01367,0 z m 56.89648,0 0,18.78906 3.79493,0 0,-7.84375 0.76953,0 c 0.87158,0 1.50659,0.0735 1.9082,0.21875 0.40161,0.13672 0.78369,0.39673 1.14258,0.78125 0.35889,0.37598 1.02392,1.29468 1.99805,2.75586 l 2.74414,4.08789 4.53711,0 -2.29493,-3.66406 c -0.90576,-1.46119 -1.62768,-2.47828 -2.16601,-3.05079 -0.52979,-0.5725 -1.20508,-1.09765 -2.02539,-1.57617 1.64917,-0.23925 2.88794,-0.81616 3.71679,-1.73047 0.82886,-0.92285 1.24415,-2.09008 1.24415,-3.5 0,-1.11084 -0.27344,-2.0979 -0.82032,-2.96093 -0.54687,-0.86304 -1.2771,-1.46167 -2.1914,-1.79493 -0.90577,-0.34179 -2.36304,-0.5117 -4.3711,-0.5117 l -7.98633,0 z m 39.33789,0 0,10.02343 c 0,2.10205 0.1233,3.69092 0.3711,4.76758 0.1709,0.72632 0.52612,1.42334 1.06445,2.08985 0.53833,0.65795 1.26856,1.19653 2.19141,1.61523 0.93139,0.41016 2.29346,0.61523 4.08789,0.61523 1.48682,0 2.69238,-0.18847 3.61523,-0.56445 0.92285,-0.38452 1.65821,-0.89819 2.20508,-1.53906 0.55542,-0.64087 0.93555,-1.42603 1.14063,-2.35742 0.20507,-0.9314 0.30664,-2.52538 0.30664,-4.78125 l 0,-9.86913 -3.79297,0 0,10.39453 c 0,1.4868 -0.0569,2.55053 -0.16797,3.19139 -0.11108,0.64088 -0.43945,1.18458 -0.98633,1.62891 -0.54687,0.43579 -1.35889,0.65234 -2.43555,0.65234 -1.05957,0 -1.89648,-0.22998 -2.51171,-0.69139 -0.60669,-0.46997 -0.99195,-1.09033 -1.1543,-1.85938 -0.094,-0.47851 -0.14063,-1.52563 -0.14063,-3.14062 l 0,-10.17578 -3.79297,0 z m 18.99415,0 0,18.78906 3.79492,0 0,-7.08789 2.47265,0 c 1.71753,0 3.02979,-0.0881 3.93555,-0.26758 0.6665,-0.14526 1.32007,-0.44043 1.96094,-0.88477 0.64941,-0.45288 1.18286,-1.07324 1.60156,-1.85937 0.4187,-0.78613 0.62891,-1.75464 0.62891,-2.9082 0,-1.49537 -0.36353,-2.71436 -1.08985,-3.6543 -0.72632,-0.94849 -1.62646,-1.56372 -2.70312,-1.8457 -0.70069,-0.18799 -2.20459,-0.28125 -4.51172,-0.28125 l -6.08984,0 z m -101.51368,0.15429 0,18.63477 13.22852,0 0,-3.16406 -9.43359,0 0,-15.47071 -3.79493,0 z m 70.4961,2.76758 c 1.56372,0 2.81592,0.53027 3.75586,1.58984 0.94848,1.05959 1.42187,2.66505 1.42187,4.81837 0,2.17895 -0.48681,3.81641 -1.46094,4.91016 -0.96557,1.0852 -2.20434,1.62694 -3.71679,1.62694 -1.51245,0 -2.75952,-0.54687 -3.74219,-1.64062 -0.98267,-1.1023 -1.47461,-2.71607 -1.47461,-4.84375 0,-2.16187 0.47852,-3.77759 1.43555,-4.8457 0.95703,-1.07666 2.21753,-1.61524 3.78125,-1.61524 z m -289.66016,0.25587 2.96094,0 c 1.53808,0 2.46191,0.0217 2.76953,0.0644 0.61523,0.10254 1.08862,0.35108 1.42188,0.74413 0.34179,0.38454 0.51367,0.89307 0.51367,1.52539 0,0.56397 -0.12842,1.03418 -0.38477,1.41016 -0.25635,0.37598 -0.61157,0.63916 -1.06445,0.79297 -0.45288,0.15381 -1.59009,0.23242 -3.41016,0.23242 l -2.80664,0 0,-4.76953 z m 266.14063,0 2.96093,0 c 1.53809,0 2.45996,0.0217 2.76758,0.0644 0.61524,0.10254 1.09058,0.35108 1.42383,0.74413 0.3418,0.38454 0.51172,0.89307 0.51172,1.52539 0,0.56397 -0.12842,1.03418 -0.38477,1.41016 -0.25634,0.37598 -0.60962,0.63916 -1.0625,0.79297 -0.45288,0.15381 -1.59008,0.23242 -3.41015,0.23242 l -2.80664,0 0,-4.76953 z m 58.33203,0 1.83203,0 c 1.36719,0 2.27759,0.0435 2.73047,0.1289 0.61523,0.11108 1.12378,0.38965 1.52539,0.83398 0.40161,0.44434 0.60156,1.00781 0.60156,1.69141 0,0.55542 -0.14502,1.04223 -0.43555,1.46094 -0.28198,0.4187 -0.67358,0.72534 -1.17773,0.92187 -0.50415,0.19653 -1.50464,0.29492 -3,0.29492 l -2.07617,0 0,-5.33203 z m -339.92969,1.20508 2.58789,6.97266 -5.12695,0 2.53906,-6.97266 z m 59.88281,0 2.58789,6.97266 -5.12695,0 2.53906,-6.97266 z m 31.1211,0 2.58789,6.97266 -5.12696,0 2.53907,-6.97266 z m 67.62304,0 2.58985,6.97266 -5.12696,0 2.53711,-6.97266 z m 64.24219,0 2.58789,6.97266 -5.12695,0 2.53906,-6.97266 z"
     style="fill:#ffffff;fill-opacity:1;fill-rule:evenodd;stroke:none;stroke-width:1px;stroke-linecap:butt;stroke-linejoin:miter;stroke-opacity:1" />
  <path
     id="path4186-6-0-6-0-5-4"
     d="m 11.10164,166.95655 c 4.84839,-9.4497 25.99895,-50.6628 47.00126,-91.584795 l 38.18601,-74.403404 16.85555,-0.01 16.85554,-0.01 0,91.586804 0,91.586795 -16.70638,0 -16.70638,0 0,-27.463 0,-27.4631 -8.16525,0.166 -8.16525,0.166 -12.33588,27.1479 -12.33588,27.1479 -26.64929,0.1553 -26.64929,0.1553 8.81524,-17.1813 z m 85.4856,-76.470995 c 0,-9.4062 -0.22811,-15.6188 -0.58151,-15.8372 -0.45935,-0.2839 -16.12487,29.844995 -16.12487,31.012395 0,0.16651 3.75894,0.3027 8.35319,0.3027 l 8.35319,0 0,-15.477895 z"
     style="opacity:0;fill:#214478;fill-opacity:0.87755103" />
</svg>
